<svg width="37" height="36" viewBox="0 0 37 36" fill="none" xmlns="http://www.w3.org/2000/svg">
<path d="M37 18C37 27.9411 28.7173 36 18.5 36C8.28273 36 0 27.9411 0 18C0 8.05888 8.28273 0 18.5 0C28.7173 0 37 8.05888 37 18Z" fill="#D98262"/>
<path d="M18.5 9.1875C19.1962 9.1875 19.8639 9.43772 20.3561 9.88312C20.8484 10.3285 21.125 10.9326 21.125 11.5625V13.9375H15.875V11.5625C15.875 10.9326 16.1515 10.3285 16.6438 9.88312C17.1361 9.43772 17.8038 9.1875 18.5 9.1875ZM22.4375 13.9375V11.5625C22.4375 10.6177 22.0226 9.71153 21.2842 9.04343C20.5458 8.37533 19.5443 8 18.5 8C17.4557 8 16.4542 8.37533 15.7157 9.04343C14.9773 9.71153 14.5625 10.6177 14.5625 11.5625V13.9375H12.41C11.9386 13.9376 11.483 14.0907 11.1258 14.369C10.7686 14.6472 10.5336 15.0322 10.4635 15.4539L9.1156 23.5919C9.04576 24.0141 9.07741 24.445 9.20838 24.8552C9.33936 25.2654 9.56658 25.6452 9.87455 25.9687C10.1825 26.2922 10.564 26.5518 10.9929 26.7298C11.4219 26.9077 11.8882 26.9999 12.3601 27H24.6385C25.1105 27.0001 25.577 26.908 26.0061 26.7301C26.4352 26.5522 26.8169 26.2927 27.125 25.9692C27.4331 25.6456 27.6604 25.2658 27.7915 24.8555C27.9225 24.4452 27.9542 24.0142 27.8844 23.5919L26.5351 15.4539C26.4651 15.0324 26.2303 14.6476 25.8734 14.3693C25.5165 14.0911 25.0611 13.9379 24.59 13.9375H22.4375ZM21.125 15.125V16.9062C21.125 17.0637 21.1941 17.2147 21.3172 17.3261C21.4403 17.4374 21.6072 17.5 21.7812 17.5C21.9553 17.5 22.1222 17.4374 22.2453 17.3261C22.3683 17.2147 22.4375 17.0637 22.4375 16.9062V15.125H24.5887C24.7458 15.1251 24.8976 15.1763 25.0166 15.2691C25.1356 15.3619 25.2138 15.4903 25.237 15.6309L26.5863 23.7664C26.6284 24.0199 26.6096 24.2785 26.5311 24.5248C26.4526 24.771 26.3163 24.999 26.1316 25.1932C25.9468 25.3875 25.7179 25.5433 25.4604 25.6502C25.203 25.7571 24.9231 25.8124 24.6399 25.8125H12.3601C12.0769 25.8124 11.797 25.7571 11.5395 25.6502C11.2821 25.5433 11.0532 25.3875 10.8684 25.1932C10.6836 24.999 10.5473 24.771 10.4689 24.5248C10.3904 24.2785 10.3716 24.0199 10.4137 23.7664L11.7629 15.6309C11.7861 15.4905 11.8642 15.3623 11.9829 15.2695C12.1016 15.1767 12.2531 15.1254 12.41 15.125H14.5625V16.9062C14.5625 17.0637 14.6316 17.2147 14.7547 17.3261C14.8778 17.4374 15.0447 17.5 15.2187 17.5C15.3928 17.5 15.5597 17.4374 15.6828 17.3261C15.8058 17.2147 15.875 17.0637 15.875 16.9062V15.125H21.125Z" fill="white"/>
</svg>
