<svg width="18" height="16" viewBox="0 0 18 16" fill="none" xmlns="http://www.w3.org/2000/svg">
<path fill-rule="evenodd" clip-rule="evenodd" d="M17.6126 8.29078C17.6126 8.56907 17.4975 8.83597 17.2925 9.03275C17.0876 9.22953 16.8096 9.34008 16.5198 9.34008H3.85853L8.55105 13.8437C8.65265 13.9413 8.73325 14.0571 8.78824 14.1845C8.84322 14.312 8.87152 14.4486 8.87152 14.5866C8.87152 14.7246 8.84322 14.8612 8.78824 14.9887C8.73325 15.1161 8.65265 15.2319 8.55105 15.3295C8.44944 15.4271 8.32882 15.5045 8.19607 15.5573C8.06331 15.6101 7.92103 15.6372 7.77734 15.6372C7.63365 15.6372 7.49136 15.6101 7.35861 15.5573C7.22586 15.5045 7.10523 15.4271 7.00363 15.3295L0.446786 9.03369C0.345016 8.93622 0.264273 8.82042 0.209182 8.69294C0.15409 8.56546 0.125732 8.4288 0.125732 8.29078C0.125732 8.15276 0.15409 8.0161 0.209182 7.88862C0.264273 7.76114 0.345016 7.64535 0.446786 7.54787L7.00363 1.25206C7.20883 1.05503 7.48714 0.944336 7.77734 0.944336C8.06753 0.944336 8.34585 1.05503 8.55105 1.25206C8.75625 1.44909 8.87152 1.71632 8.87152 1.99496C8.87152 2.27361 8.75625 2.54084 8.55105 2.73787L3.85853 7.24148H16.5198C16.8096 7.24148 17.0876 7.35203 17.2925 7.54881C17.4975 7.74559 17.6126 8.01249 17.6126 8.29078Z" fill="black"/>
</svg>
