<svg width="18" height="16" viewBox="0 0 18 16" fill="none" xmlns="http://www.w3.org/2000/svg">
<path fill-rule="evenodd" clip-rule="evenodd" d="M0.13916 8.29078C0.13916 8.01249 0.254295 7.74559 0.459236 7.54881C0.664177 7.35203 0.942137 7.24148 1.23197 7.24148H13.8932L9.20072 2.73787C8.99552 2.54084 8.88024 2.27361 8.88024 1.99496C8.88024 1.71632 8.99552 1.44909 9.20072 1.25206C9.40592 1.05503 9.68423 0.944336 9.97443 0.944336C10.2646 0.944336 10.5429 1.05503 10.7481 1.25206L17.305 7.54787C17.4067 7.64535 17.4875 7.76114 17.5426 7.88862C17.5977 8.0161 17.626 8.15276 17.626 8.29078C17.626 8.4288 17.5977 8.56546 17.5426 8.69294C17.4875 8.82042 17.4067 8.93622 17.305 9.03369L10.7481 15.3295C10.5429 15.5265 10.2646 15.6372 9.97443 15.6372C9.68423 15.6372 9.40592 15.5265 9.20072 15.3295C8.99552 15.1325 8.88024 14.8652 8.88024 14.5866C8.88024 14.308 8.99552 14.0407 9.20072 13.8437L13.8932 9.34008H1.23197C0.942137 9.34008 0.664177 9.22953 0.459236 9.03275C0.254295 8.83597 0.13916 8.56907 0.13916 8.29078Z" fill="black"/>
</svg>
