<svg width="25" height="25" viewBox="0 0 25 25" fill="none" xmlns="http://www.w3.org/2000/svg">
<g clip-path="url(#clip0_20_57)">
<path d="M8.78622 8.54346C8.98548 8.54346 9.17657 8.62242 9.31747 8.76298C9.45837 8.90354 9.53752 9.09418 9.53752 9.29296V18.287C9.53752 18.4858 9.45837 18.6764 9.31747 18.817C9.17657 18.9575 8.98548 19.0365 8.78622 19.0365C8.58696 19.0365 8.39586 18.9575 8.25496 18.817C8.11407 18.6764 8.03491 18.4858 8.03491 18.287V9.29296C8.03491 9.09418 8.11407 8.90354 8.25496 8.76298C8.39586 8.62242 8.58696 8.54346 8.78622 8.54346ZM12.5427 8.54346C12.742 8.54346 12.9331 8.62242 13.074 8.76298C13.2149 8.90354 13.294 9.09418 13.294 9.29296V18.287C13.294 18.4858 13.2149 18.6764 13.074 18.817C12.9331 18.9575 12.742 19.0365 12.5427 19.0365C12.3435 19.0365 12.1524 18.9575 12.0115 18.817C11.8706 18.6764 11.7914 18.4858 11.7914 18.287V9.29296C11.7914 9.09418 11.8706 8.90354 12.0115 8.76298C12.1524 8.62242 12.3435 8.54346 12.5427 8.54346ZM17.0506 9.29296C17.0506 9.09418 16.9714 8.90354 16.8305 8.76298C16.6896 8.62242 16.4985 8.54346 16.2993 8.54346C16.1 8.54346 15.9089 8.62242 15.768 8.76298C15.6271 8.90354 15.548 9.09418 15.548 9.29296V18.287C15.548 18.4858 15.6271 18.6764 15.768 18.817C15.9089 18.9575 16.1 19.0365 16.2993 19.0365C16.4985 19.0365 16.6896 18.9575 16.8305 18.817C16.9714 18.6764 17.0506 18.4858 17.0506 18.287V9.29296Z" fill="black"/>
<path d="M22.3098 4.79584C22.3098 5.1934 22.1515 5.57468 21.8697 5.8558C21.5879 6.13691 21.2057 6.29484 20.8072 6.29484H20.0559V19.7859C20.0559 20.581 19.7393 21.3436 19.1757 21.9058C18.6121 22.468 17.8477 22.7839 17.0507 22.7839H8.03502C7.23798 22.7839 6.47359 22.468 5.91 21.9058C5.34641 21.3436 5.02979 20.581 5.02979 19.7859V6.29484H4.27849C3.87997 6.29484 3.49778 6.13691 3.21598 5.8558C2.93419 5.57468 2.77588 5.1934 2.77588 4.79584V3.29684C2.77588 2.89928 2.93419 2.518 3.21598 2.23688C3.49778 1.95576 3.87997 1.79783 4.27849 1.79783H9.53763C9.53763 1.40027 9.69594 1.01899 9.97773 0.737876C10.2595 0.456758 10.6417 0.298828 11.0402 0.298828L14.0455 0.298828C14.444 0.298828 14.8262 0.456758 15.108 0.737876C15.3898 1.01899 15.5481 1.40027 15.5481 1.79783H20.8072C21.2057 1.79783 21.5879 1.95576 21.8697 2.23688C22.1515 2.518 22.3098 2.89928 22.3098 3.29684V4.79584ZM6.70971 6.29484L6.5324 6.38329V19.7859C6.5324 20.1834 6.69072 20.5647 6.97251 20.8458C7.2543 21.127 7.6365 21.2849 8.03502 21.2849H17.0507C17.4492 21.2849 17.8314 21.127 18.1132 20.8458C18.395 20.5647 18.5533 20.1834 18.5533 19.7859V6.38329L18.376 6.29484H6.70971ZM4.27849 4.79584H20.8072V3.29684H4.27849V4.79584Z" fill="black"/>
</g>
<defs>
<clipPath id="clip0_20_57">
<rect width="24.0418" height="23.9841" fill="white" transform="translate(0.521973 0.298828)"/>
</clipPath>
</defs>
</svg>
